HIERARCHY
ROOT hip
{
  OFFSET 7.70293 84.592 222.869
  CHANNELS 6 Xposition Yposition Zposition Zrotation Xrotation Yrotation
  JOINT abdomen
  {
    OFFSET 0 20.6881 -0.73152
    CHANNELS 3 Zrotation Xrotation Yrotation
    JOINT chest
    {
      OFFSET 0 11.7043 -0.48768
      CHANNELS 3 Zrotation Xrotation Yrotation
      JOINT neck
      {
        OFFSET 0 22.1894 -2.19456
        CHANNELS 3 Zrotation Xrotation Yrotation
        JOINT head
        {
          OFFSET -0.24384 7.07133 1.2192
          CHANNELS 3 Zrotation Xrotation Yrotation
          JOINT leftEye
          {
            OFFSET 4.14528 8.04674 8.04672
            CHANNELS 3 Zrotation Xrotation Yrotation
            End Site
            {
              OFFSET 1 0 0
            }
          }
          JOINT rightEye
          {
            OFFSET -3.6576 8.04674 8.04672
            CHANNELS 3 Zrotation Xrotation Yrotation
            End Site
            {
              OFFSET 1 0 0
            }
          }
        }
      }
      JOINT rCollar
      {
        OFFSET -2.68224 19.2634 -4.8768
        CHANNELS 3 Zrotation Xrotation Yrotation
        JOINT rShldr
        {
          OFFSET -8.77824 -1.95073 1.46304
          CHANNELS 3 Zrotation Xrotation Yrotation
          JOINT rForeArm
          {
            OFFSET -28.1742 -1.7115 0.48768
            CHANNELS 3 Zrotation Xrotation Yrotation
            JOINT rHand
            {
              OFFSET -22.5879 0.773209 7.07136
              CHANNELS 3 Zrotation Xrotation Yrotation
              JOINT rThumb1
              {
                OFFSET -1.2192 -0.487915 3.41376
                CHANNELS 3 Zrotation Xrotation Yrotation
                JOINT rThumb2
                {
                  OFFSET -3.37035 -0.52449 3.41376
                  CHANNELS 3 Zrotation Xrotation Yrotation
                  End Site
                  {
                    OFFSET -1.78271 -1.18214 1.43049
                  }
                }
              }
              JOINT rIndex1
              {
                OFFSET -7.75947 0.938293 5.60832
                CHANNELS 3 Zrotation Xrotation Yrotation
                JOINT rIndex2
                {
                  OFFSET -2.54057 -0.884171 1.56538
                  CHANNELS 3 Zrotation Xrotation Yrotation
                  End Site
                  {
                    OFFSET -1.62519 -0.234802 1.16502
                  }
                }
              }
              JOINT rMid1
              {
                OFFSET -8.24714 1.18213 3.41376
                CHANNELS 3 Zrotation Xrotation Yrotation
                JOINT rMid2
                {
                  OFFSET -3.10165 -0.590103 1.0647
                  CHANNELS 3 Zrotation Xrotation Yrotation
                  End Site
                  {
                    OFFSET -2.48547 -0.328903 0.83742
                  }
                }
              }
              JOINT rRing1
              {
                OFFSET -8.82822 0.546677 1.51678
                CHANNELS 3 Zrotation Xrotation Yrotation
                JOINT rRing2
                {
                  OFFSET -2.60934 -0.819778 -0.0198488
                  CHANNELS 3 Zrotation Xrotation Yrotation
                  End Site
                  {
                    OFFSET -2.33842 -0.294052 0.168128
                  }
                }
              }
              JOINT rPinky1
              {
                OFFSET -8.27202 -0.0477905 -0.4584
                CHANNELS 3 Zrotation Xrotation Yrotation
                JOINT rPinky2
                {
                  OFFSET -1.82734 -0.647385 -0.700984
                  CHANNELS 3 Zrotation Xrotation Yrotation
                  End Site
                  {
                    OFFSET -1.69225 -0.51767 -0.607171
                  }
                }
              }
            }
          }
        }
      }
      JOINT lCollar
      {
        OFFSET 2.68224 19.2634 -4.8768
        CHANNELS 3 Zrotation Xrotation Yrotation
        JOINT lShldr
        {
          OFFSET 8.77824 -1.95073 1.46304
          CHANNELS 3 Zrotation Xrotation Yrotation
          JOINT lForeArm
          {
            OFFSET 28.1742 -1.7115 0.48768
            CHANNELS 3 Zrotation Xrotation Yrotation
            JOINT lHand
            {
              OFFSET 22.5879 0.773209 7.07136
              CHANNELS 3 Zrotation Xrotation Yrotation
              JOINT lThumb1
              {
                OFFSET 1.2192 -0.487915 3.41376
                CHANNELS 3 Zrotation Xrotation Yrotation
                JOINT lThumb2
                {
                  OFFSET 3.37035 -0.52449 3.41376
                  CHANNELS 3 Zrotation Xrotation Yrotation
                  End Site
                  {
                    OFFSET 1.78271 -1.18214 1.43049
                  }
                }
              }
              JOINT lIndex1
              {
                OFFSET 7.75947 0.938293 5.60832
                CHANNELS 3 Zrotation Xrotation Yrotation
                JOINT lIndex2
                {
                  OFFSET 2.54057 -0.884171 1.56538
                  CHANNELS 3 Zrotation Xrotation Yrotation
                  End Site
                  {
                    OFFSET 1.62519 -0.234802 1.16502
                  }
                }
              }
              JOINT lMid1
              {
                OFFSET 8.24714 1.18213 3.41376
                CHANNELS 3 Zrotation Xrotation Yrotation
                JOINT lMid2
                {
                  OFFSET 3.10165 -0.590103 1.0647
                  CHANNELS 3 Zrotation Xrotation Yrotation
                  End Site
                  {
                    OFFSET 2.48547 -0.328903 0.83742
                  }
                }
              }
              JOINT lRing1
              {
                OFFSET 8.82822 0.546677 1.51678
                CHANNELS 3 Zrotation Xrotation Yrotation
                JOINT lRing2
                {
                  OFFSET 2.60934 -0.819778 -0.0198488
                  CHANNELS 3 Zrotation Xrotation Yrotation
                  End Site
                  {
                    OFFSET 2.33842 -0.294052 0.168128
                  }
                }
              }
              JOINT lPinky1
              {
                OFFSET 8.27202 -0.0477905 -0.4584
                CHANNELS 3 Zrotation Xrotation Yrotation
                JOINT lPinky2
                {
                  OFFSET 1.82734 -0.647385 -0.700984
                  CHANNELS 3 Zrotation Xrotation Yrotation
                  End Site
                  {
                    OFFSET 1.69225 -0.51767 -0.607171
                  }
                }
              }
            }
          }
        }
      }
    }
  }
  JOINT rButtock
  {
    OFFSET -8.77824 4.35084 1.2192
    CHANNELS 3 Zrotation Xrotation Yrotation
    JOINT rThigh
    {
      OFFSET 0 -1.70687 -2.19456
      CHANNELS 3 Zrotation Xrotation Yrotation
      JOINT rShin
      {
        OFFSET 0 -36.8199 0.73152
        CHANNELS 3 Zrotation Xrotation Yrotation
        JOINT rFoot
        {
          OFFSET 0.73152 -45.1104 -5.12064
          CHANNELS 3 Zrotation Xrotation Yrotation
          End Site
          {
            OFFSET -1.1221 -3.69964 12.103
          }
        }
      }
    }
  }
  JOINT lButtock
  {
    OFFSET 8.77824 4.35084 1.2192
    CHANNELS 3 Zrotation Xrotation Yrotation
    JOINT lThigh
    {
      OFFSET 0 -1.70687 -2.19456
      CHANNELS 3 Zrotation Xrotation Yrotation
      JOINT lShin
      {
        OFFSET 0 -36.8199 0.73152
        CHANNELS 3 Zrotation Xrotation Yrotation
        JOINT lFoot
        {
          OFFSET -0.73152 -45.1104 -5.12064
          CHANNELS 3 Zrotation Xrotation Yrotation
          End Site
          {
            OFFSET 1.1221 -3.69964 12.103
          }
        }
      }
    }
  }
}
MOTION
Frames:	9
Frame Time:	0.00833333
12.1754 83.9104 -45.1284 4.02112 1.5281 8.19764 -4.4848 5.49762 -1.86815 4.77252 -2.30603 -0.480493 2.78051 0.226596 -0.305002 -7.30107 -2.40235 -1.50323 -0 0 0 -0 0 0 2.03488e-013 -1.27236e-014 -1.41386e-013 77.7894 9.89113 -6.29576 -12.8944 -6.09597 23.3549 -0.0470692 -6.17983 -0.871935 -1.8292e-009 4.46651e-010 -6.1191e-010 -3.15762e-009 7.69615e-010 -1.0639e-009 -1.8292e-009 4.46654e-010 -6.1192e-010 7.73091 5.47488 0.417314 -1.82921e-009 4.46654e-010 -6.11904e-010 2.90554 0.965183 0.102902 -1.8292e-009 4.46652e-010 -6.11905e-010 10.2786 0.731801 0.0259123 -1.82921e-009 4.46655e-010 -6.11897e-010 2.22167 -0.733487 -0.20892 2.03438e-013 -1.27211e-014 -1.41684e-013 -85.9243 30.2781 9.60194 14.4777 -7.34643 -26.5202 0.150548 -10.993 1.5644 -1.71196e-009 -4.32648e-010 -3.3205e-012 -2.9547e-009 -7.45544e-010 -1.73237e-011 -1.71196e-009 -4.32643e-010 -3.3046e-012 -7.73091 5.47488 -0.417314 -1.71195e-009 -4.32648e-010 -3.31414e-012 -2.90554 0.965183 -0.102902 -1.71197e-009 -4.3265e-010 -3.31255e-012 -10.2786 0.731801 -0.0259123 -1.71195e-009 -4.3265e-010 -3.31732e-012 -2.22167 -0.733487 0.20892 -2.03217e-016 0 -3.88251e-019 -12.7882 -38.6008 -1.84347 -0.132462 24.1709 0.244406 -1.40553 2.09529 -17.2429 2.03217e-016 0 3.88251e-019 -7.76635 4.09904 -5.65325 0.01477 13.1311 -0.321098 2.36592 -6.89153 10.8743 
12.1078 83.8721 -44.7704 3.9846 1.70664 8.29661 -4.42391 5.35726 -1.91419 4.75113 -2.3082 -0.491734 2.74501 0.240438 -0.315985 -7.25435 -2.42412 -1.5138 -0 0 0 -0 0 0 1.57685e-013 1.88875e-015 -2.293e-013 77.7939 9.77839 -6.37162 -12.8455 -6.05953 23.2587 -0.0455996 -6.08229 -0.858069 -1.21781e-009 -5.80688e-010 -1.02925e-009 -2.09872e-009 -1.01053e-009 -1.78461e-009 -1.21781e-009 -5.80684e-010 -1.02926e-009 7.73091 5.47488 0.417314 -1.21781e-009 -5.80685e-010 -1.02924e-009 2.90554 0.965183 0.102902 -1.21781e-009 -5.80686e-010 -1.02925e-009 10.2786 0.731801 0.0259123 -1.21782e-009 -5.80684e-010 -1.02924e-009 2.22167 -0.733487 -0.20892 1.57672e-013 1.88813e-015 -2.29566e-013 -85.976 30.1769 9.6694 14.4583 -7.33024 -26.4808 0.148122 -10.9061 1.55173 -1.25325e-009 2.77879e-010 -2.48456e-010 -2.15972e-009 4.86475e-010 -4.38924e-010 -1.25325e-009 2.77883e-010 -2.4844e-010 -7.73091 5.47488 -0.417314 -1.25325e-009 2.7788e-010 -2.48451e-010 -2.90554 0.965183 -0.102902 -1.25326e-009 2.77877e-010 -2.48448e-010 -10.2786 0.731801 -0.0259123 -1.25325e-009 2.77877e-010 -2.48453e-010 -2.22167 -0.733487 0.20892 -2.03217e-016 0 -3.88251e-019 -12.6398 -38.4186 -1.41308 -0.128813 23.8487 0.243267 -1.48396 1.80247 -17.2262 2.03217e-016 0 3.88251e-019 -7.67828 4.18618 -5.70833 0.0163609 13.094 -0.318065 2.37633 -6.89833 10.9258 
12.0427 83.8356 -44.4081 3.94283 1.89583 8.40113 -4.35766 5.21305 -1.96458 4.72943 -2.32254 -0.503629 2.69003 0.260708 -0.33416 -7.17857 -2.43522 -1.53112 -0 0 0 -0 0 0 6.3315e-014 2.40559e-014 -3.3475e-013 77.8001 9.65468 -6.4497 -12.7968 -6.02336 23.163 -0.0443098 -5.99633 -0.845851 -4.34846e-011 -2.05762e-009 -1.51589e-009 -6.6617e-011 -3.56881e-009 -2.62369e-009 -4.34827e-011 -2.05762e-009 -1.5159e-009 7.73091 5.47488 0.417314 -4.34873e-011 -2.05762e-009 -1.51589e-009 2.90554 0.965183 0.102902 -4.34852e-011 -2.05762e-009 -1.51589e-009 10.2786 0.731801 0.0259123 -4.34928e-011 -2.05762e-009 -1.51588e-009 2.22167 -0.733487 -0.20892 6.33648e-014 2.40503e-014 -3.34952e-013 -86.0299 30.0853 9.74587 14.4401 -7.31511 -26.4439 0.145191 -10.7995 1.53618 -3.22384e-010 1.339e-009 -5.6734e-010 -5.48674e-010 2.3254e-009 -9.85075e-010 -3.22387e-010 1.339e-009 -5.67325e-010 -7.73091 5.47488 -0.417314 -3.22383e-010 1.339e-009 -5.67338e-010 -2.90554 0.965183 -0.102902 -3.22393e-010 1.339e-009 -5.67332e-010 -10.2786 0.731801 -0.0259123 -3.22383e-010 1.339e-009 -5.67338e-010 -2.22167 -0.733487 0.20892 -2.03217e-016 0 -3.88251e-019 -12.49 -38.2134 -0.990776 -0.124648 23.4631 0.240605 -1.57178 1.48618 -17.272 2.03217e-016 0 3.88251e-019 -7.58087 4.26667 -5.75448 0.0179791 13.0483 -0.313776 2.38267 -6.90053 10.9611 
11.9762 83.8002 -44.0468 3.90523 2.08986 8.50227 -4.29732 5.07022 -2.01445 4.71017 -2.34132 -0.515249 2.63631 0.276296 -0.352106 -7.10535 -2.44898 -1.54894 -0 0 0 -0 0 0 -3.30568e-014 4.2744e-014 -4.12919e-013 77.8067 9.52866 -6.52501 -12.7497 -5.98852 23.0706 -0.0431819 -5.92043 -0.835066 1.1187e-009 -3.29644e-009 -1.87251e-009 1.94376e-009 -5.71418e-009 -3.23769e-009 1.1187e-009 -3.29644e-009 -1.87252e-009 7.73091 5.47488 0.417314 1.1187e-009 -3.29644e-009 -1.8725e-009 2.90554 0.965183 0.102902 1.1187e-009 -3.29644e-009 -1.8725e-009 10.2786 0.731801 0.0259123 1.11869e-009 -3.29644e-009 -1.8725e-009 2.22167 -0.733487 -0.20892 -3.29418e-014 4.27341e-014 -4.13055e-013 -86.0802 29.9981 9.81873 14.4207 -7.29899 -26.4045 0.142154 -10.6873 1.51984 6.18606e-010 2.2892e-009 -8.21825e-010 1.0791e-009 3.97168e-009 -1.41961e-009 6.18602e-010 2.2892e-009 -8.21811e-010 -7.73091 5.47488 -0.417314 6.18605e-010 2.2892e-009 -8.21826e-010 -2.90554 0.965183 -0.102902 6.18599e-010 2.2892e-009 -8.21818e-010 -10.2786 0.731801 -0.0259123 6.18607e-010 2.28921e-009 -8.21824e-010 -2.22167 -0.733487 0.20892 -2.03217e-016 0 -3.88251e-019 -12.3495 -38.0015 -0.607112 -0.120475 23.0676 0.237314 -1.66445 1.16741 -17.3659 2.03217e-016 0 3.88251e-019 -7.48436 4.34373 -5.7936 0.0194992 13.0006 -0.30895 2.38593 -6.90044 10.9813 
11.9122 83.7654 -43.682 3.88137 2.28296 8.59107 -4.25406 4.934 -2.05896 4.69611 -2.35682 -0.525662 2.60455 0.276095 -0.362404 -7.06628 -2.47874 -1.561 -0 0 0 -0 0 0 -8.48646e-014 4.69194e-014 -4.18988e-013 77.8127 9.40897 -6.59255 -12.7058 -5.95605 22.9844 -0.042202 -5.85307 -0.825498 1.69367e-009 -3.60944e-009 -1.89975e-009 2.93748e-009 -6.25556e-009 -3.28315e-009 1.69367e-009 -3.60944e-009 -1.89975e-009 7.73091 5.47488 0.417314 1.69367e-009 -3.60944e-009 -1.89975e-009 2.90554 0.965183 0.102902 1.69367e-009 -3.60944e-009 -1.89975e-009 10.2786 0.731801 0.0259123 1.69366e-009 -3.60944e-009 -1.89974e-009 2.22167 -0.733487 -0.20892 -8.47043e-014 4.69079e-014 -4.19088e-013 -86.1215 29.9101 9.87539 14.3976 -7.27984 -26.3576 0.139384 -10.5837 1.50476 1.10769e-009 2.66698e-009 -8.73762e-010 1.92424e-009 4.62576e-009 -1.50635e-009 1.10768e-009 2.66698e-009 -8.73749e-010 -7.73091 5.47488 -0.417314 1.10769e-009 2.66698e-009 -8.73765e-010 -2.90554 0.965183 -0.102902 1.10768e-009 2.66698e-009 -8.73756e-010 -10.2786 0.731801 -0.0259123 1.10769e-009 2.66699e-009 -8.73762e-010 -2.22167 -0.733487 0.20892 -2.03217e-016 0 -3.88251e-019 -12.2277 -37.7995 -0.291926 -0.116764 22.716 0.234266 -1.75703 0.867011 -17.4936 2.03217e-016 0 3.88251e-019 -7.39898 4.42055 -5.82761 0.0207919 12.9575 -0.304307 2.38709 -6.9004 10.9877 
11.8505 83.7307 -43.3132 3.87654 2.47607 8.67152 -4.23468 4.80284 -2.10071 4.6903 -2.36583 -0.535789 2.6131 0.255073 -0.359872 -7.08784 -2.53062 -1.56379 -0 0 0 -0 0 0 -6.47438e-014 2.54243e-014 -3.03778e-013 77.8174 9.29361 -6.65005 -12.6647 -5.92582 22.904 -0.0414634 -5.80107 -0.818114 1.29686e-009 -2.33188e-009 -1.37415e-009 2.24865e-009 -4.04121e-009 -2.37424e-009 1.29686e-009 -2.33188e-009 -1.37416e-009 7.73091 5.47488 0.417314 1.29686e-009 -2.33188e-009 -1.37415e-009 2.90554 0.965183 0.102902 1.29686e-009 -2.33188e-009 -1.37415e-009 10.2786 0.731801 0.0259123 1.29685e-009 -2.33188e-009 -1.37414e-009 2.22167 -0.733487 -0.20892 -6.45574e-014 2.54161e-014 -3.03882e-013 -86.1526 29.8236 9.91255 14.3702 -7.25714 -26.302 0.13701 -10.4941 1.49174 8.36487e-010 2.11608e-009 -5.81939e-010 1.45262e-009 3.6702e-009 -1.00279e-009 8.36482e-010 2.11608e-009 -5.81926e-010 -7.73091 5.47488 -0.417314 8.36485e-010 2.11608e-009 -5.81942e-010 -2.90554 0.965183 -0.102902 8.3648e-010 2.11608e-009 -5.81933e-010 -10.2786 0.731801 -0.0259123 8.36488e-010 2.11609e-009 -5.8194e-010 -2.22167 -0.733487 0.20892 -2.03217e-016 0 -3.88251e-019 -12.1315 -37.6084 -0.0499085 -0.11349 22.4069 0.231208 -1.84969 0.5902 -17.6699 2.03217e-016 0 3.88251e-019 -7.32867 4.49842 -5.85603 0.0219047 12.9149 -0.299668 2.38549 -6.90395 10.9737 
11.7885 83.6951 -42.9389 3.88481 2.67147 8.7463 -4.2319 4.67493 -2.14101 4.6905 -2.37287 -0.545736 2.64666 0.219846 -0.349534 -7.14716 -2.59665 -1.56127 -0 0 0 -0 0 0 -2.51175e-015 -1.31181e-014 -1.03601e-013 77.8217 9.17939 -6.70051 -12.626 -5.89743 22.8282 -0.0409213 -5.76283 -0.812684 3.12046e-010 9.01668e-012 -4.58803e-010 5.41418e-010 1.56071e-011 -7.92218e-010 3.12049e-010 9.02023e-012 -4.58808e-010 7.73091 5.47488 0.417314 3.12044e-010 9.01712e-012 -4.58801e-010 2.90554 0.965183 0.102902 3.12051e-010 9.01701e-012 -4.58801e-010 10.2786 0.731801 0.0259123 3.12037e-010 9.02001e-012 -4.58795e-010 2.22167 -0.733487 -0.20892 -2.30892e-015 -1.31199e-014 -1.03731e-013 -86.1765 29.7401 9.93697 14.3398 -7.23196 -26.2403 0.134809 -10.4105 1.47959 1.1314e-010 9.60374e-010 -5.4826e-011 1.97543e-010 1.66615e-009 -9.47282e-011 1.13136e-010 9.60374e-010 -5.48119e-011 -7.73091 5.47488 -0.417314 1.13139e-010 9.60373e-010 -5.48268e-011 -2.90554 0.965183 -0.102902 1.13132e-010 9.60373e-010 -5.48203e-011 -10.2786 0.731801 -0.0259123 1.13142e-010 9.60376e-010 -5.48276e-011 -2.22167 -0.733487 0.20892 -2.03217e-016 0 -3.88251e-019 -12.0531 -37.4213 0.134688 -0.110455 22.1169 0.227835 -1.94567 0.326308 -17.8962 2.03217e-016 0 3.88251e-019 -7.26762 4.57549 -5.87817 0.0228805 12.8712 -0.294773 2.38092 -6.90889 10.941 
11.7216 83.6581 -42.56 3.89923 2.86539 8.80438 -4.23574 4.55512 -2.17299 4.69153 -2.38173 -0.553353 2.6754 0.176769 -0.339281 -7.2018 -2.66904 -1.55833 -0 0 0 -0 0 0 6.26243e-014 -5.00702e-014 9.81216e-014 77.8264 9.07323 -6.74682 -12.5906 -5.87151 22.7589 -0.040368 -5.72421 -0.8072 -6.83336e-010 2.313e-009 4.65817e-010 -1.18406e-009 4.0084e-009 8.05742e-010 -6.83334e-010 2.313e-009 4.65813e-010 7.73091 5.47488 0.417314 -6.83337e-010 2.313e-009 4.65819e-010 2.90554 0.965183 0.102902 -6.83329e-010 2.313e-009 4.6582e-010 10.2786 0.731801 0.0259123 -6.83345e-010 2.313e-009 4.65826e-010 2.22167 -0.733487 -0.20892 6.28254e-014 -5.00658e-014 9.79547e-014 -86.1938 29.6536 9.95117 14.3067 -7.20462 -26.1733 0.132612 -10.3267 1.4674 -5.99606e-010 -2.41477e-010 4.71201e-010 -1.03915e-009 -4.17958e-010 8.11529e-010 -5.99611e-010 -2.41476e-010 4.71217e-010 -7.73091 5.47488 -0.417314 -5.99607e-010 -2.41479e-010 4.71203e-010 -2.90554 0.965183 -0.102902 -5.99616e-010 -2.41478e-010 4.71207e-010 -10.2786 0.731801 -0.0259123 -5.99603e-010 -2.41477e-010 4.71199e-010 -2.22167 -0.733487 0.20892 -2.03217e-016 0 -3.88251e-019 -11.9783 -37.2429 0.263149 -0.107825 21.8667 0.224916 -2.0437 0.0721177 -18.1378 2.03217e-016 0 3.88251e-019 -7.21142 4.65027 -5.89559 0.0235743 12.8369 -0.290217 2.37499 -6.90887 10.9032 
11.6514 83.621 -42.1702 3.91302 3.05415 8.83475 -4.23613 4.44825 -2.1898 4.68823 -2.39621 -0.556491 2.66948 0.132198 -0.337001 -7.20934 -2.74 -1.55989 -0 0 0 -0 0 0 9.14571e-014 -6.67946e-014 2.17967e-013 77.8324 8.98202 -6.79189 -12.5594 -5.84871 22.6979 -0.0396077 -5.67108 -0.799658 -1.11185e-009 3.47982e-009 1.01923e-009 -1.92764e-009 6.03068e-009 1.76246e-009 -1.11185e-009 3.47983e-009 1.01922e-009 7.73091 5.47488 0.417314 -1.11185e-009 3.47982e-009 1.01923e-009 2.90554 0.965183 0.102902 -1.11184e-009 3.47982e-009 1.01923e-009 10.2786 0.731801 0.0259123 -1.11186e-009 3.47983e-009 1.01924e-009 2.22167 -0.733487 -0.20892 9.16295e-014 -6.6787e-014 2.17769e-013 -86.2049 29.558 9.95765 14.2713 -7.17546 -26.1015 0.130262 -10.2363 1.45428 -8.39008e-010 -9.30796e-010 7.59768e-010 -1.45562e-009 -1.61371e-009 1.30968e-009 -8.39013e-010 -9.30795e-010 7.59784e-010 -7.73091 5.47488 -0.417314 -8.39008e-010 -9.30799e-010 7.59771e-010 -2.90554 0.965183 -0.102902 -8.39019e-010 -9.30799e-010 7.59772e-010 -10.2786 0.731801 -0.0259123 -8.39005e-010 -9.30797e-010 7.59765e-010 -2.22167 -0.733487 0.20892 -2.03217e-016 0 -3.88251e-019 -11.8933 -37.0781 0.336746 -0.105751 21.677 0.22321 -2.14192 -0.175771 -18.36 2.03217e-016 0 3.88251e-019 -7.15565 4.72124 -5.90986 0.023837 12.8224 -0.286596 2.36931 -6.89758 10.8738 
